<svg width="346" height="258" viewBox="0 0 346 258" fill="none" xmlns="http://www.w3.org/2000/svg">
<circle cx="-0.838817" cy="32.7462" r="10" transform="rotate(21.9628 -0.838817 32.7462)" fill="url(#paint0_linear_531_307)" fill-opacity="0.8"/>
<circle cx="47.3877" cy="52.1945" r="10" transform="rotate(21.9628 47.3877 52.1945)" fill="url(#paint1_linear_531_307)" fill-opacity="0.8"/>
<circle cx="95.6124" cy="71.6427" r="10" transform="rotate(21.9628 95.6124 71.6427)" fill="url(#paint2_linear_531_307)" fill-opacity="0.8"/>
<circle cx="143.839" cy="91.091" r="10" transform="rotate(21.9628 143.839 91.091)" fill="url(#paint3_linear_531_307)" fill-opacity="0.8"/>
<circle cx="192.065" cy="110.539" r="10" transform="rotate(21.9628 192.065 110.539)" fill="url(#paint4_linear_531_307)" fill-opacity="0.8"/>
<circle cx="240.292" cy="129.987" r="10" transform="rotate(21.9628 240.292 129.987)" fill="url(#paint5_linear_531_307)" fill-opacity="0.8"/>
<circle cx="288.519" cy="149.436" r="10" transform="rotate(21.9628 288.519 149.436)" fill="url(#paint6_linear_531_307)" fill-opacity="0.8"/>
<circle cx="-4.9853" cy="86.0143" r="10" transform="rotate(21.9628 -4.9853 86.0143)" fill="url(#paint7_linear_531_307)" fill-opacity="0.8"/>
<circle cx="43.2413" cy="105.463" r="10" transform="rotate(21.9628 43.2413 105.463)" fill="url(#paint8_linear_531_307)" fill-opacity="0.8"/>
<circle cx="91.4678" cy="124.911" r="10" transform="rotate(21.9628 91.4678 124.911)" fill="url(#paint9_linear_531_307)" fill-opacity="0.8"/>
<circle cx="139.692" cy="144.359" r="10" transform="rotate(21.9628 139.692 144.359)" fill="url(#paint10_linear_531_307)" fill-opacity="0.8"/>
<circle cx="187.919" cy="163.807" r="10" transform="rotate(21.9628 187.919 163.807)" fill="url(#paint11_linear_531_307)" fill-opacity="0.8"/>
<circle cx="236.146" cy="183.256" r="10" transform="rotate(21.9628 236.146 183.256)" fill="url(#paint12_linear_531_307)" fill-opacity="0.8"/>
<circle cx="284.372" cy="202.704" r="10" transform="rotate(21.9628 284.372 202.704)" fill="url(#paint13_linear_531_307)" fill-opacity="0.8"/>
<circle cx="332.599" cy="222.152" r="10" transform="rotate(21.9628 332.599 222.152)" fill="url(#paint14_linear_531_307)" fill-opacity="0.8"/>
<circle cx="10.4678" cy="146.911" r="10" transform="rotate(21.9628 10.4678 146.911)" fill="url(#paint15_linear_531_307)" fill-opacity="0.8"/>
<circle cx="58.6924" cy="166.359" r="10" transform="rotate(21.9628 58.6924 166.359)" fill="url(#paint16_linear_531_307)" fill-opacity="0.8"/>
<circle cx="106.919" cy="185.807" r="10" transform="rotate(21.9628 106.919 185.807)" fill="url(#paint17_linear_531_307)" fill-opacity="0.8"/>
<circle cx="155.146" cy="205.256" r="10" transform="rotate(21.9628 155.146 205.256)" fill="url(#paint18_linear_531_307)" fill-opacity="0.8"/>
<circle cx="203.372" cy="224.704" r="10" transform="rotate(21.9628 203.372 224.704)" fill="url(#paint19_linear_531_307)" fill-opacity="0.8"/>
<circle cx="251.599" cy="244.152" r="10" transform="rotate(21.9628 251.599 244.152)" fill="url(#paint20_linear_531_307)" fill-opacity="0.8"/>
<defs>
<linearGradient id="paint0_linear_531_307" x1="9.16118" y1="32.7462" x2="-10.8388" y2="32.7462" gradientUnits="userSpaceOnUse">
<stop stop-color="#6979A8" stop-opacity="0.76"/>
<stop offset="1" stop-color="#839FF3" stop-opacity="0.73"/>
</linearGradient>
<linearGradient id="paint1_linear_531_307" x1="57.3877" y1="52.1945" x2="37.3877" y2="52.1945" gradientUnits="userSpaceOnUse">
<stop stop-color="#6979A8" stop-opacity="0.76"/>
<stop offset="1" stop-color="#839FF3" stop-opacity="0.73"/>
</linearGradient>
<linearGradient id="paint2_linear_531_307" x1="105.612" y1="71.6427" x2="85.6124" y2="71.6427" gradientUnits="userSpaceOnUse">
<stop stop-color="#6979A8" stop-opacity="0.76"/>
<stop offset="1" stop-color="#839FF3" stop-opacity="0.73"/>
</linearGradient>
<linearGradient id="paint3_linear_531_307" x1="153.839" y1="91.091" x2="133.839" y2="91.091" gradientUnits="userSpaceOnUse">
<stop stop-color="#6979A8" stop-opacity="0.76"/>
<stop offset="1" stop-color="#839FF3" stop-opacity="0.73"/>
</linearGradient>
<linearGradient id="paint4_linear_531_307" x1="202.065" y1="110.539" x2="182.065" y2="110.539" gradientUnits="userSpaceOnUse">
<stop stop-color="#6979A8" stop-opacity="0.76"/>
<stop offset="1" stop-color="#839FF3" stop-opacity="0.73"/>
</linearGradient>
<linearGradient id="paint5_linear_531_307" x1="250.292" y1="129.987" x2="230.292" y2="129.987" gradientUnits="userSpaceOnUse">
<stop stop-color="#6979A8" stop-opacity="0.76"/>
<stop offset="1" stop-color="#839FF3" stop-opacity="0.73"/>
</linearGradient>
<linearGradient id="paint6_linear_531_307" x1="298.519" y1="149.436" x2="278.519" y2="149.436" gradientUnits="userSpaceOnUse">
<stop stop-color="#6979A8" stop-opacity="0.76"/>
<stop offset="1" stop-color="#839FF3" stop-opacity="0.73"/>
</linearGradient>
<linearGradient id="paint7_linear_531_307" x1="5.0147" y1="86.0143" x2="-14.9853" y2="86.0143" gradientUnits="userSpaceOnUse">
<stop stop-color="#6979A8" stop-opacity="0.76"/>
<stop offset="1" stop-color="#839FF3" stop-opacity="0.73"/>
</linearGradient>
<linearGradient id="paint8_linear_531_307" x1="53.2413" y1="105.463" x2="33.2413" y2="105.463" gradientUnits="userSpaceOnUse">
<stop stop-color="#6979A8" stop-opacity="0.76"/>
<stop offset="1" stop-color="#839FF3" stop-opacity="0.73"/>
</linearGradient>
<linearGradient id="paint9_linear_531_307" x1="101.468" y1="124.911" x2="81.4678" y2="124.911" gradientUnits="userSpaceOnUse">
<stop stop-color="#6979A8" stop-opacity="0.76"/>
<stop offset="1" stop-color="#839FF3" stop-opacity="0.73"/>
</linearGradient>
<linearGradient id="paint10_linear_531_307" x1="149.692" y1="144.359" x2="129.692" y2="144.359" gradientUnits="userSpaceOnUse">
<stop stop-color="#6979A8" stop-opacity="0.76"/>
<stop offset="1" stop-color="#839FF3" stop-opacity="0.73"/>
</linearGradient>
<linearGradient id="paint11_linear_531_307" x1="197.919" y1="163.807" x2="177.919" y2="163.807" gradientUnits="userSpaceOnUse">
<stop stop-color="#6979A8" stop-opacity="0.76"/>
<stop offset="1" stop-color="#839FF3" stop-opacity="0.73"/>
</linearGradient>
<linearGradient id="paint12_linear_531_307" x1="246.146" y1="183.256" x2="226.146" y2="183.256" gradientUnits="userSpaceOnUse">
<stop stop-color="#6979A8" stop-opacity="0.76"/>
<stop offset="1" stop-color="#839FF3" stop-opacity="0.73"/>
</linearGradient>
<linearGradient id="paint13_linear_531_307" x1="294.372" y1="202.704" x2="274.372" y2="202.704" gradientUnits="userSpaceOnUse">
<stop stop-color="#6979A8" stop-opacity="0.76"/>
<stop offset="1" stop-color="#839FF3" stop-opacity="0.73"/>
</linearGradient>
<linearGradient id="paint14_linear_531_307" x1="342.599" y1="222.152" x2="322.599" y2="222.152" gradientUnits="userSpaceOnUse">
<stop stop-color="#6979A8" stop-opacity="0.76"/>
<stop offset="1" stop-color="#839FF3" stop-opacity="0.73"/>
</linearGradient>
<linearGradient id="paint15_linear_531_307" x1="20.4678" y1="146.911" x2="0.467824" y2="146.911" gradientUnits="userSpaceOnUse">
<stop stop-color="#6979A8" stop-opacity="0.76"/>
<stop offset="1" stop-color="#839FF3" stop-opacity="0.73"/>
</linearGradient>
<linearGradient id="paint16_linear_531_307" x1="68.6924" y1="166.359" x2="48.6924" y2="166.359" gradientUnits="userSpaceOnUse">
<stop stop-color="#6979A8" stop-opacity="0.76"/>
<stop offset="1" stop-color="#839FF3" stop-opacity="0.73"/>
</linearGradient>
<linearGradient id="paint17_linear_531_307" x1="116.919" y1="185.807" x2="96.919" y2="185.807" gradientUnits="userSpaceOnUse">
<stop stop-color="#6979A8" stop-opacity="0.76"/>
<stop offset="1" stop-color="#839FF3" stop-opacity="0.73"/>
</linearGradient>
<linearGradient id="paint18_linear_531_307" x1="165.146" y1="205.256" x2="145.146" y2="205.256" gradientUnits="userSpaceOnUse">
<stop stop-color="#6979A8" stop-opacity="0.76"/>
<stop offset="1" stop-color="#839FF3" stop-opacity="0.73"/>
</linearGradient>
<linearGradient id="paint19_linear_531_307" x1="213.372" y1="224.704" x2="193.372" y2="224.704" gradientUnits="userSpaceOnUse">
<stop stop-color="#6979A8" stop-opacity="0.76"/>
<stop offset="1" stop-color="#839FF3" stop-opacity="0.73"/>
</linearGradient>
<linearGradient id="paint20_linear_531_307" x1="261.599" y1="244.152" x2="241.599" y2="244.152" gradientUnits="userSpaceOnUse">
<stop stop-color="#6979A8" stop-opacity="0.76"/>
<stop offset="1" stop-color="#839FF3" stop-opacity="0.73"/>
</linearGradient>
</defs>
</svg>
