<svg width="222" height="682" viewBox="0 0 222 682" fill="none" xmlns="http://www.w3.org/2000/svg">
<g opacity="0.25">
<path d="M214.507 11.2322L110.651 115.088L6.79498 11.2322L2.52722 6.96447V13L2.52722 118.624V119.659L3.25946 120.391L108.883 226.015L110.651 227.783L112.419 226.015L218.042 120.391L218.774 119.659V118.624L218.774 13V6.96447L214.507 11.2322Z" stroke="white" stroke-width="5"/>
<path d="M197.547 96.5391L198.279 95.8069V94.7713V60.6992V54.6637L194.012 58.9315L110.599 142.344L27.1864 58.9315L22.9187 54.6637V60.6992V94.7713V95.8069L23.6509 96.5391L108.831 181.719L110.599 183.487L112.367 181.719L197.547 96.5391Z" fill="white" stroke="black" stroke-width="5"/>
<path d="M214.505 161.126L110.649 264.982L6.79303 161.126L2.52527 156.858V162.894L2.52527 268.517V269.553L3.25751 270.285L108.881 375.909L110.649 377.676L112.417 375.909L218.04 270.285L218.772 269.553V268.517L218.772 162.894V156.858L214.505 161.126Z" stroke="white" stroke-width="5"/>
<path d="M197.545 246.429L198.277 245.697V244.661V210.589V204.553L194.01 208.821L110.597 292.234L27.1845 208.821L22.9167 204.553V210.589V244.661V245.697L23.6489 246.429L108.829 331.609L110.597 333.377L112.365 331.609L197.545 246.429Z" fill="white" stroke="black" stroke-width="5"/>
<path d="M214.511 311.034L110.655 414.89L6.79889 311.034L2.53113 306.766V312.802L2.53113 418.425V419.461L3.26337 420.193L108.887 525.817L110.655 527.584L112.422 525.817L218.046 420.193L218.778 419.461V418.425L218.778 312.802V306.766L214.511 311.034Z" stroke="white" stroke-width="5"/>
<path d="M197.556 396.369L198.288 395.636V394.601V360.529V354.493L194.02 358.761L110.608 442.174L27.1952 358.761L22.9274 354.493V360.529V394.601V395.636L23.6597 396.369L108.84 481.549L110.608 483.317L112.376 481.549L197.556 396.369Z" fill="white" stroke="black" stroke-width="5"/>
<path d="M214.479 460.985L110.623 564.841L6.76764 460.985L2.49988 456.717V462.753L2.49988 568.377V569.412L3.23212 570.144L108.856 675.768L110.623 677.536L112.391 675.768L218.015 570.144L218.747 569.412V568.377L218.747 462.753V456.717L214.479 460.985Z" stroke="white" stroke-width="5"/>
<path d="M197.526 546.3L198.258 545.568V544.532V510.46V504.424L193.99 508.692L110.577 592.105L27.1649 508.692L22.8972 504.424V510.46V544.532V545.568L23.6294 546.3L108.81 631.48L110.577 633.248L112.345 631.48L197.526 546.3Z" fill="white" stroke="black" stroke-width="5"/>
</g>
</svg>
