<svg width="93" height="77" viewBox="0 0 93 77" fill="none" xmlns="http://www.w3.org/2000/svg">
<path d="M8.86572 58.3732L11.7305 58.2047C13.8936 58.0775 16.0083 57.5122 17.9464 56.5431L18.6226 56.205L25.4886 52.23" stroke="#000F57" stroke-width="3" stroke-linecap="round"/>
<path d="M45.7251 75.3574H89.5345C90.0868 75.3574 90.5345 74.9097 90.5345 74.3574V33.8003" stroke="#000F57" stroke-width="3" stroke-linecap="round"/>
<path d="M51.5073 51.8686L62.3483 45.7254L66.6039 43.5051C69.3008 42.098 72.1335 40.9679 75.0584 40.1322V40.1322C77.1748 39.5275 79.3651 39.2208 81.5661 39.2208H82.0214C84.5307 39.2208 87.0056 39.805 89.25 40.9272L89.4508 41.0276" stroke="#000F57" stroke-width="3" stroke-linecap="round"/>
<path d="M2.36133 21.8752L3.38871 23.3592C4.85872 25.4825 6.71713 27.3086 8.86592 28.7411V28.7411L9.95002 29.4639L11.0341 30.0059V30.0059C11.7528 30.3653 12.5212 30.6151 13.3138 30.7472L15.6206 31.1317C16.1757 31.2242 16.7374 31.2707 17.3001 31.2707H18.8815C20.1514 31.2707 21.4182 31.1453 22.6634 30.8962V30.8962C23.8221 30.6645 24.9584 30.3326 26.0597 29.9044L30.9093 28.0184L35.9684 25.1275" stroke="#000F57" stroke-width="3" stroke-linecap="round"/>
<path d="M2.36133 26.9343L3.38871 28.4183C4.85872 30.5416 6.71713 32.3677 8.86592 33.8002V33.8002L9.95002 34.523L11.0341 35.065V35.065C11.7528 35.4244 12.5212 35.6742 13.3138 35.8063L15.6206 36.1908C16.1757 36.2833 16.7374 36.3298 17.3001 36.3298H18.8815C20.1514 36.3298 21.4182 36.2044 22.6634 35.9553V35.9553C23.8221 35.7236 24.9584 35.3917 26.0597 34.9635L30.9093 33.0775L35.9684 30.1866" stroke="#000F57" stroke-width="3" stroke-linecap="round"/>
<path d="M2.36133 32.7162L3.3139 34.0921C4.82269 36.2715 6.85647 38.0354 9.22729 39.2208V39.2208L9.3401 39.2772C10.2259 39.7201 11.1575 40.0647 12.1182 40.3049V40.3049V40.3049C13.0806 40.5455 14.0592 40.7158 15.0462 40.8145L17.1774 41.0276H20.2828C20.8615 41.0276 21.4393 40.9798 22.0102 40.8846V40.8846C22.8822 40.7393 23.7401 40.5194 24.5745 40.2274L27.6182 39.1621C29.5663 38.4803 31.4397 37.6016 33.2096 36.5397L35.9684 34.8844" stroke="#000F57" stroke-width="3" stroke-linecap="round"/>
<path d="M42.4727 2H46.4477" stroke="#000F57" stroke-width="3" stroke-linecap="round"/>
<path d="M2.72266 46.448C3.64238 47.0612 5.47555 48.1614 7.78179 48.9776C9.10009 49.4442 10.9987 50.2585 12.4795 50.4231C14.3189 50.6274 17.7763 50.9473 21.1523 50.4231C21.7565 50.3293 22.3581 50.1956 22.9474 50.0377C26.3849 49.1169 29.4187 47.0936 32.1581 44.8221L36.4829 41.2358L44.2798 33.4389L51.5071 25.8502L53.5605 23.7968C57.0002 20.3571 60.7936 17.2904 64.8777 14.6478V14.6478V14.6478C69.176 11.7823 73.9734 9.74811 79.0214 8.65072L79.6937 8.50457L80.1955 8.41049C83.6534 7.76213 87.2215 8.04401 90.5347 9.2273V9.2273" stroke="#000F57" stroke-width="3" stroke-linecap="round"/>
<path d="M37.7752 3.5C38.6037 3.5 39.2752 2.82843 39.2752 2C39.2752 1.17157 38.6037 0.5 37.7752 0.5V3.5ZM2.36133 3.5H37.7752V0.5H2.36133V3.5Z" fill="#000F57"/>
<path d="M2.36133 46.4481L2.36133 2" stroke="#000F57" stroke-width="3" stroke-linecap="round"/>
<path d="M2.36133 40.3048L5.51026 42.4041C7.01692 43.4086 8.65928 44.1927 10.3876 44.7328V44.7328C12.4928 45.3907 14.6856 45.7253 16.8912 45.7253H17.9924C20.3262 45.7253 22.6462 45.3677 24.8717 44.6649L25.8679 44.3503C27.5384 43.8228 29.1528 43.1319 30.6877 42.2877V42.2877C33.9317 40.5036 36.7685 38.0633 39.0174 35.1224L40.3048 33.4389C45.7253 26.5729 55.4152 15.2073 56.5663 14.2865C57.774 13.3203 62.7389 8.67178 70.2982 5.2523C72.7045 4.16382 74.8496 3.28195 77.5099 2.69423C80.8378 1.95904 84.2974 2.13442 87.6916 2.44205C89.1471 2.57398 90.4 2.75336 90.8961 3.0841" stroke="#000F57" stroke-width="3" stroke-linecap="round"/>
<path d="M2 51.8686L6.5042 53.5845C8.54341 54.3613 10.7073 54.7595 12.8894 54.7595V54.7595C15.7307 54.7595 18.5547 54.3168 21.2596 53.4474L24.5367 52.3941C26.365 51.8064 28.0911 50.939 29.6538 49.8228L37.4139 44.2799L48.2549 34.8844L60.5414 24.0434L64.6099 21.331C66.9536 19.7686 69.4079 18.379 71.9535 17.1732L72.7588 16.7917C74.2466 16.0869 75.8004 15.5309 77.3976 15.1316L78.2698 14.9135C79.9356 14.4971 81.6461 14.2865 83.3631 14.2865H85.1143H85.3744C87.1198 14.2865 88.8566 14.5297 90.5348 15.0092V15.0092" stroke="#000F57" stroke-width="3" stroke-linecap="round"/>
<path d="M2.36133 57.2891L7.98977 58.3611C9.29371 58.6095 10.6181 58.7345 11.9455 58.7345V58.7345C15.4108 58.7345 18.8533 58.1759 22.1408 57.0801L24.0877 56.4311C25.2592 56.0406 26.3844 55.5231 27.4433 54.8877L36.6912 49.339L48.6163 41.0276L60.9027 30.1866L64.9713 27.4742C67.3149 25.9118 69.7693 24.5221 72.3149 23.3163L73.1202 22.9349C74.608 22.2301 76.1618 21.674 77.759 21.2748L78.6312 21.0567C80.2969 20.6403 82.0075 20.4297 83.7245 20.4297H85.4756H85.7358C87.4811 20.4297 89.2179 20.6729 90.8961 21.1524V21.1524" stroke="#000F57" stroke-width="3" stroke-linecap="round"/>
<path d="M2.36133 62.7096L4.81847 63.0975C7.74364 63.5594 10.7186 63.6147 13.6589 63.2619V63.2619C16.7204 62.8945 19.7404 62.239 22.6788 61.304L24.656 60.6749C25.6917 60.3454 26.7027 59.9428 27.6815 59.4703L36.6911 55.1209L48.9776 46.8094L61.6254 36.6912L65.3522 34.0824C67.6827 32.4511 70.1301 30.9933 72.6746 29.7211L73.5561 29.2804C74.755 28.6809 76.0001 28.1789 77.2795 27.7791L79.9877 26.9328C80.753 26.6936 81.5424 26.5393 82.3415 26.4727L83.5295 26.3737C84.8234 26.2659 86.125 26.2927 87.4134 26.4538V26.4538C88.0473 26.533 88.6718 26.6747 89.2778 26.8767L90.5347 27.2956" stroke="#000F57" stroke-width="3" stroke-linecap="round"/>
<path d="M2.36133 68.4915L5.10756 68.753C8.32402 69.0593 11.6044 68.9691 14.8006 68.4956V68.4956C18.0401 68.0157 21.2749 67.2698 24.3956 66.2769L27.657 65.2392L36.6911 60.9028L48.9776 53.3141L61.6254 43.1958L68.8527 38.1367L73.6618 35.465C74.7902 34.8381 75.9683 34.3048 77.184 33.8706V33.8706C79.3231 33.1067 81.5775 32.7162 83.8489 32.7162H85.4756L86.0987 32.7941C87.6069 32.9826 89.0928 33.3196 90.5347 33.8003V33.8003" stroke="#000F57" stroke-width="3" stroke-linecap="round"/>
<path d="M2.36133 74.996L5.10756 75.2576C8.32402 75.5639 11.6044 75.4737 14.8006 75.0002V75.0002C18.0401 74.5202 21.2749 73.7744 24.3956 72.7814L27.657 71.7437L36.6911 67.4073L48.9776 59.8186L63.7936 51.1458L69.9368 48.6163L72.9558 47.8112C74.5529 47.3853 76.1883 47.1189 77.8379 47.0158L80.3974 46.8558C80.8909 46.825 81.3861 46.8403 81.8767 46.9016L82.5354 46.984C83.5295 47.1082 84.5088 47.3304 85.4592 47.6472V47.6472C85.9507 47.811 86.4249 48.023 86.8748 48.2801L88.7279 49.339" stroke="#000F57" stroke-width="3" stroke-linecap="round"/>
</svg>
