<svg width="82" height="82" viewBox="0 0 82 82" fill="none" xmlns="http://www.w3.org/2000/svg">
<path d="M80.6675 37.0229L74.7976 24.7502C74.0528 23.1956 72.2625 22.4337 70.6327 22.9838L40.9863 32.8785L11.2989 22.9872C9.66914 22.444 7.87881 23.199 7.13398 24.757L1.48964 36.6231C-0.140108 39.3291 -0.447608 42.5784 0.645725 45.5372C1.70489 48.4072 3.93939 50.6315 6.79914 51.6701L6.77864 59.5797C6.77864 66.9495 11.4697 73.4685 18.4602 75.7986L33.374 80.7733C35.8135 81.583 38.376 81.9896 40.9385 81.9896C43.501 81.9896 46.0635 81.583 48.503 80.7699L63.4304 75.7952C70.4141 73.465 75.1086 66.9597 75.112 59.607L75.1325 51.6735C78.023 50.6622 80.2848 48.4448 81.3474 45.5645C82.4271 42.633 82.123 39.4145 80.6675 37.0229ZM7.49614 39.8587L11.9993 30.4185L36.1381 38.4613L30.6031 49.586C29.7762 50.9731 28.1123 51.5813 26.5919 51.0756L9.23181 45.2844C8.21364 44.9461 7.42098 44.1774 7.04856 43.1729C6.67956 42.1718 6.78548 41.0682 7.49614 39.8587ZM20.623 69.3206C16.4273 67.9198 13.6086 64.0077 13.612 59.59L13.6256 53.9525L24.436 57.557C29.0348 59.0809 33.9787 57.2495 36.5959 52.8694L37.5423 50.9731L37.5286 74.818C36.8556 74.6814 36.1927 74.5071 35.5401 74.2919L20.6264 69.3206H20.623ZM61.2676 69.3138L46.3402 74.2885C45.6911 74.5037 45.0282 74.6814 44.3586 74.818L44.3722 50.9185L45.4621 53.1051C47.3652 56.2758 50.6965 58.0935 54.2156 58.0935C55.3021 58.0935 56.4126 57.9192 57.4956 57.557L68.2923 53.9593L68.2786 59.6002C68.2786 64.0145 65.4599 67.9164 61.2676 69.3138ZM74.9343 43.1934C74.5756 44.1671 73.8034 44.9154 72.8194 45.2468L55.3329 51.0722C53.8364 51.5745 52.1383 50.9492 51.4516 49.8251L45.8004 38.475L69.9357 30.4219L74.6576 40.2619C75.1906 41.1536 75.2965 42.2196 74.9343 43.1934ZM17.8145 20.1445C16.4786 18.8086 16.4786 16.6493 17.8145 15.3134L31.1292 2.00205C33.7908 -0.659536 38.13 -0.659536 40.7916 2.00205L46.2446 7.45505C48.8173 6.13963 52.1827 6.53255 54.284 8.6338L61.9886 16.3384C63.3245 17.6743 63.3245 19.8336 61.9886 21.1695C60.6526 22.5055 58.4933 22.5055 57.1574 21.1695L49.4528 13.465L38.6869 24.2309C38.0206 24.8971 37.146 25.232 36.2713 25.232C35.3966 25.232 34.522 24.8971 33.8557 24.2309C32.5198 22.895 32.5198 20.7356 33.8557 19.3997L41.1913 12.0641L35.9638 6.83663L22.6491 20.148C21.9828 20.8142 21.1081 21.149 20.2335 21.149C19.3588 21.149 18.4841 20.8142 17.8179 20.148L17.8145 20.1445Z" fill="black"/>
</svg>
