<svg width="82" height="83" viewBox="0 0 82 83" fill="none" xmlns="http://www.w3.org/2000/svg">
<g clip-path="url(#clip0_790_394)">
<path d="M36.9405 82.5H27.3329L37.7127 51.75H20.4995L16.7925 57.3978C15.8602 58.8136 14.5905 59.9755 13.0977 60.7789C11.6049 61.5822 9.93579 62.0018 8.24055 62H0.146464L7.66313 41.5L0.0917969 21H8.19955C9.89192 20.9978 11.5584 21.4159 13.0492 22.2168C14.5401 23.0176 15.8087 24.1763 16.7412 25.5886L20.4995 31.25H37.723L27.3329 0.5H36.9405C38.782 0.499659 40.5895 0.9954 42.1731 1.93511C43.7568 2.87482 45.058 4.2238 45.94 5.84025L60.0919 31.25H71.384C73.855 31.2189 76.2583 32.0574 78.1738 33.6188C80.0893 35.1801 81.3951 37.3651 81.8629 39.7917C82.1114 41.262 82.0361 42.7688 81.6423 44.2071C81.2485 45.6453 80.5456 46.9803 79.5826 48.1189C78.6197 49.2575 77.42 50.1723 76.0671 50.7994C74.7142 51.4266 73.2407 51.751 71.7495 51.75H60.0919L45.9264 77.1837C45.0423 78.7936 43.7419 80.1365 42.1611 81.0717C40.5803 82.0069 38.7773 82.5002 36.9405 82.5Z" fill="black"/>
</g>
<defs>
<clipPath id="clip0_790_394">
<rect width="82" height="82" fill="white" transform="translate(0 0.5)"/>
</clipPath>
</defs>
</svg>
