<svg width="90" height="97" viewBox="0 0 90 97" fill="none" xmlns="http://www.w3.org/2000/svg">
<path d="M79.9801 48.1948C79.9801 46.9045 81.0218 45.8628 82.3121 45.8628H90C88.4142 42.6291 86.5253 39.613 84.3799 36.838L82.8407 39.9084C82.4443 40.7013 81.6436 41.1988 80.7575 41.1988H76.0935C74.8031 41.1988 73.7614 40.1572 73.7614 38.8668C73.7614 37.5764 74.8031 36.5348 76.0935 36.5348H79.3194L81.0062 33.1612C81.0295 33.099 81.0684 33.0523 81.1073 32.9979C79.7679 31.5762 78.347 30.2469 76.8685 28.9946V21.7654C76.8685 20.4774 75.8245 19.4334 74.5365 19.4334C73.2484 19.4334 72.2044 20.4774 72.2044 21.7654V25.4803C69.2684 23.5183 66.1451 21.8672 62.8787 20.566V10.8827C62.8787 10.0253 63.576 9.32803 64.4334 9.32803H66.3962C67.3593 12.0409 69.9447 13.9921 72.9841 13.9921C76.842 13.9921 79.9801 10.8532 79.9801 6.99603C79.9801 3.13888 76.842 0 72.9841 0C69.9447 0 67.3593 1.95111 66.3962 4.66402H64.4334C61.0046 4.66402 58.2147 7.45388 58.2147 10.8827V18.9756C54.6918 17.9673 51.0469 17.3463 47.332 17.1644V13.5839C50.0449 12.6208 51.996 10.0354 51.996 6.99603C51.996 3.13888 48.8579 0 45 0C41.1429 0 38.004 3.13888 38.004 6.99603C38.004 10.0346 39.9551 12.6201 42.668 13.5839V17.1644C38.9531 17.3463 35.3082 17.9666 31.7853 18.9732V10.8827C31.7853 7.45388 28.9954 4.66402 25.5666 4.66402H23.6038C22.6399 1.95111 20.0545 0 17.0159 0C13.1587 0 10.0199 3.13888 10.0199 6.99603C10.0199 10.8532 13.1587 13.9921 17.0159 13.9921C20.0545 13.9921 22.6399 12.0409 23.6038 9.32803H25.5666C26.424 9.32803 27.1213 10.0253 27.1213 10.8827V20.5621C24.4247 21.6356 21.8253 22.9477 19.3479 24.476V21.7654C19.3479 20.4774 18.3039 19.4334 17.0159 19.4334C15.7278 19.4334 14.6839 20.4774 14.6839 21.7654V27.7144C12.634 29.3188 10.6954 31.0818 8.89273 32.9979C8.92382 33.0523 8.97046 33.099 8.99378 33.1612L10.6806 36.5348H13.9065C15.1969 36.5348 16.2386 37.5764 16.2386 38.8668C16.2386 40.1572 15.1969 41.1988 13.9065 41.1988H9.24253C8.35637 41.1988 7.54794 40.7013 7.15927 39.9084L5.62014 36.8302C3.47469 39.613 1.58577 42.6291 0 45.8628H7.68786C8.97823 45.8628 10.0199 46.9045 10.0199 48.1948C10.0199 49.4852 8.97823 50.5268 7.68786 50.5268H0C1.58577 53.7606 3.47469 56.7766 5.62014 59.5595L7.15927 56.4812C7.54794 55.6884 8.35637 55.1909 9.24253 55.1909H13.9065C15.1969 55.1909 16.2386 56.2325 16.2386 57.5229C16.2386 58.8133 15.1969 59.8549 13.9065 59.8549H10.6806L8.99378 63.2285C8.97046 63.2907 8.93159 63.3451 8.9005 63.3995C10.7 65.3126 12.6364 67.074 14.6839 68.6761V74.6243C14.6839 75.9123 15.7278 76.9563 17.0159 76.9563C18.3039 76.9563 19.3479 75.9123 19.3479 74.6243V71.9145C21.8253 73.4427 24.4239 74.7541 27.1213 75.8276V85.507C27.1213 86.3644 26.424 87.0616 25.5666 87.0616H23.6038C22.6399 84.3487 20.0553 82.3976 17.0159 82.3976C13.1587 82.3976 10.0199 85.5365 10.0199 89.3937C10.0199 93.2508 13.1587 96.3897 17.0159 96.3897C20.0545 96.3897 22.6399 94.4386 23.6038 91.7257H25.5666C28.9954 91.7257 31.7853 88.9358 31.7853 85.507V77.4165C35.3082 78.4231 38.9531 79.0434 42.668 79.2253V82.8057C39.9551 83.7696 38.004 86.3543 38.004 89.3937C38.004 93.2508 41.1429 96.3897 45 96.3897C48.8579 96.3897 51.996 93.2508 51.996 89.3937C51.996 86.355 50.0449 83.7696 47.332 82.8057V79.2253C51.0477 79.0434 54.6918 78.4231 58.2147 77.4157V85.507C58.2147 88.9358 61.0046 91.7257 64.4334 91.7257H66.3962C67.3593 94.4386 69.9447 96.3897 72.9841 96.3897C76.842 96.3897 79.9801 93.2508 79.9801 89.3937C79.9801 85.5365 76.842 82.3976 72.9841 82.3976C69.9447 82.3976 67.3593 84.3487 66.3962 87.0616H64.4334C63.576 87.0616 62.8787 86.3644 62.8787 85.507V75.826C66.1459 74.5248 69.2692 72.8737 72.2044 70.9109V74.6243C72.2044 75.9123 73.2484 76.9563 74.5365 76.9563C75.8245 76.9563 76.8685 75.9123 76.8685 74.6243V67.3935C78.3438 66.142 79.7625 64.8127 81.0995 63.3918C81.0684 63.3373 81.0295 63.2907 81.0062 63.2285L79.3194 59.8549H76.0935C74.8031 59.8549 73.7614 58.8133 73.7614 57.5229C73.7614 56.2325 74.8031 55.1909 76.0935 55.1909H80.7575C81.6436 55.1909 82.4443 55.6884 82.8407 56.4812L84.3799 59.5517C86.5253 56.7766 88.4142 53.7606 90 50.5268H82.3121C81.0218 50.5268 79.9801 49.4852 79.9801 48.1948ZM72.9841 4.66402C74.2698 4.66402 75.3161 5.71031 75.3161 6.99603C75.3161 8.28174 74.2698 9.32803 72.9841 9.32803C71.6984 9.32803 70.6521 8.28174 70.6521 6.99603C70.6521 5.71031 71.6984 4.66402 72.9841 4.66402ZM17.0159 9.32803C15.7302 9.32803 14.6839 8.28174 14.6839 6.99603C14.6839 5.71031 15.7302 4.66402 17.0159 4.66402C18.3016 4.66402 19.3479 5.71031 19.3479 6.99603C19.3479 8.28174 18.3016 9.32803 17.0159 9.32803ZM17.0159 91.7257C15.7302 91.7257 14.6839 90.6794 14.6839 89.3937C14.6839 88.1079 15.7302 87.0616 17.0159 87.0616C18.3016 87.0616 19.3479 88.1079 19.3479 89.3937C19.3479 90.6794 18.3016 91.7257 17.0159 91.7257ZM72.9841 87.0616C74.2698 87.0616 75.3161 88.1079 75.3161 89.3937C75.3161 90.6794 74.2698 91.7257 72.9841 91.7257C71.6984 91.7257 70.6521 90.6794 70.6521 89.3937C70.6521 88.1079 71.6984 87.0616 72.9841 87.0616ZM45 4.66402C46.2857 4.66402 47.332 5.71031 47.332 6.99603C47.332 8.28174 46.2857 9.32803 45 9.32803C43.7143 9.32803 42.668 8.28174 42.668 6.99603C42.668 5.71031 43.7143 4.66402 45 4.66402ZM45 91.7257C43.7143 91.7257 42.668 90.6794 42.668 89.3937C42.668 88.1079 43.7143 87.0616 45 87.0616C46.2857 87.0616 47.332 88.1079 47.332 89.3937C47.332 90.6794 46.2857 91.7257 45 91.7257ZM45 66.8509C34.7003 66.8509 26.3439 58.4945 26.3439 48.1948C26.3439 37.8951 34.7003 29.5388 45 29.5388C55.2997 29.5388 63.6561 37.8951 63.6561 48.1948C63.6561 58.4945 55.2997 66.8509 45 66.8509Z" fill="black"/>
</svg>
