<svg width="82" height="83" viewBox="0 0 82 83" fill="none" xmlns="http://www.w3.org/2000/svg">
<g clip-path="url(#clip0_755_1468)">
<path d="M41 0.5C51.8616 0.537813 62.2668 4.87259 69.9426 12.5574L78.5834 3.91667V24.1058C78.5838 24.5954 78.4877 25.0803 78.3005 25.5328C78.1134 25.9852 77.8388 26.3963 77.4926 26.7426C77.1463 27.0888 76.7352 27.3633 76.2828 27.5505C75.8303 27.7377 75.3454 27.8338 74.8558 27.8333H54.6667L62.7061 19.7939C57.6725 14.7846 51.0579 11.6753 43.9891 10.9957C36.9202 10.3162 29.8344 12.1083 23.9387 16.0669C18.0429 20.0255 13.7019 25.9057 11.6552 32.7058C9.6085 39.5059 9.98263 46.8053 12.7139 53.3605C15.4451 59.9157 20.3645 65.3212 26.6341 68.6563C32.9037 71.9914 40.1356 73.0497 47.0979 71.651C54.0603 70.2522 60.3223 66.4829 64.8174 60.9852C69.3124 55.4875 71.7624 48.6014 71.75 41.5H82C82 49.609 79.5954 57.536 75.0903 64.2784C70.5851 71.0208 64.1818 76.2759 56.69 79.3791C49.1983 82.4823 40.9545 83.2942 33.0013 81.7122C25.0481 80.1302 17.7426 76.2253 12.0086 70.4914C6.27469 64.7574 2.36982 57.4519 0.787822 49.4987C-0.794172 41.5455 0.0177647 33.3018 3.12096 25.81C6.22415 18.3182 11.4792 11.9149 18.2216 7.40975C24.9641 2.90461 32.891 0.5 41 0.5Z" fill="black"/>
<path d="M34.1667 24.4167V47.0385L45.9167 58.7918L53.1668 51.5417L44.4167 42.795V24.4167H34.1667Z" fill="black"/>
</g>
<defs>
<clipPath id="clip0_755_1468">
<rect width="82" height="82" fill="white" transform="translate(0 0.5)"/>
</clipPath>
</defs>
</svg>
