<svg width="82" height="82" viewBox="0 0 82 82" fill="none" xmlns="http://www.w3.org/2000/svg">
<path d="M33.3125 50.9937V58.1687C20.7562 60.4749 11.275 67.9062 10.25 77.1312H71.75C70.725 67.9062 61.2438 60.4749 48.6875 58.1687V51.2499" fill="white"/>
<path d="M33.3125 50.9937V58.1687C20.7562 60.4749 11.275 67.9062 10.25 77.1312H71.75C70.725 67.9062 61.2438 60.4749 48.6875 58.1687V51.2499" stroke="black" stroke-miterlimit="10" stroke-linecap="round" stroke-linejoin="round"/>
<path d="M55.6061 59.9624C53.5561 63.2937 47.9186 65.5999 40.9998 65.5999C34.3373 65.5999 28.4436 63.2937 26.3936 59.9624" fill="white"/>
<path d="M55.6061 59.9624C53.5561 63.2937 47.9186 65.5999 40.9998 65.5999C34.3373 65.5999 28.4436 63.2937 26.3936 59.9624" stroke="black" stroke-miterlimit="10" stroke-linecap="round" stroke-linejoin="round"/>
<path d="M55.6063 43.5625H26.3938C21.7813 43.5625 17.9375 39.7188 17.9375 35.1062V23.8313C17.9375 19.2188 21.7813 15.375 26.3938 15.375H55.8625C60.2188 15.375 64.0625 19.2188 64.0625 23.8313V35.3625C64.0625 39.7188 60.2188 43.5625 55.6063 43.5625Z" fill="white" stroke="black" stroke-miterlimit="10" stroke-linecap="round" stroke-linejoin="round"/>
<path d="M33.3125 25.625H48.6875" stroke="black" stroke-miterlimit="10" stroke-linecap="round" stroke-linejoin="round"/>
<path d="M55.0938 43.5625C51.25 49.9688 45.6125 53.8125 41 53.8125C36.3875 53.8125 30.75 49.9688 26.9062 43.5625" fill="white"/>
<path d="M55.0938 43.5625C51.25 49.9688 45.6125 53.8125 41 53.8125C36.3875 53.8125 30.75 49.9688 26.9062 43.5625" stroke="black" stroke-miterlimit="10" stroke-linecap="round" stroke-linejoin="round"/>
<path d="M24.0879 15.6312C27.1629 8.96875 32.5441 5.125 41.0004 5.125C49.4566 5.125 54.8379 8.96875 57.9129 15.6312" fill="white"/>
<path d="M24.0879 15.6312C27.1629 8.96875 32.5441 5.125 41.0004 5.125C49.4566 5.125 54.8379 8.96875 57.9129 15.6312" stroke="black" stroke-miterlimit="10" stroke-linecap="round" stroke-linejoin="round"/>
</svg>
