<svg width="84" height="85" viewBox="0 0 84 85" fill="none" xmlns="http://www.w3.org/2000/svg">
<path d="M58.7473 9.65906L63.0698 2.62406C64.0778 0.972061 66.2338 0.461061 67.8823 1.47606C69.5308 2.48756 70.0453 4.64006 69.0303 6.28856L64.7078 13.3236C64.0498 14.4016 62.8983 14.9931 61.7223 14.9931C61.0958 14.9931 60.4658 14.8251 59.8953 14.4751C58.2468 13.4636 57.7323 11.3076 58.7473 9.65906ZM18.9943 13.3201C19.6523 14.3981 20.8073 14.9931 21.9833 14.9931C22.6063 14.9931 23.2363 14.8251 23.8068 14.4786C25.4553 13.4671 25.9733 11.3146 24.9618 9.66606L20.6463 2.62756C19.6348 0.979061 17.4788 0.464561 15.8338 1.47256C14.1853 2.48406 13.6673 4.63656 14.6788 6.28506L18.9943 13.3201ZM11.3433 21.0481L5.05028 18.0346C3.31428 17.1911 1.21078 17.9331 0.384783 19.6796C-0.451717 21.4226 0.286783 23.5121 2.02978 24.3451L8.32278 27.3586C8.80928 27.5931 9.32378 27.7051 9.83128 27.7051C11.1368 27.7051 12.3898 26.9736 12.9883 25.7171C13.8248 23.9741 13.0863 21.8811 11.3433 21.0481ZM41.5238 15.0036C22.2248 15.3221 6.92978 36.2381 17.4088 56.3841C19.0013 59.4431 21.3638 62.0051 23.9013 64.3396C24.8638 65.2251 25.6093 66.3206 26.2463 67.4966H38.4998V49.3526C34.4363 47.9036 31.4998 44.0536 31.4998 39.4966C31.4998 37.5611 33.0643 35.9966 34.9998 35.9966C36.9353 35.9966 38.4998 37.5611 38.4998 39.4966C38.4998 41.4321 40.0678 42.9966 41.9998 42.9966C43.9318 42.9966 45.4998 41.4286 45.4998 39.4966C45.4998 37.5646 47.0643 35.9966 48.9998 35.9966C50.9353 35.9966 52.4998 37.5611 52.4998 39.4966C52.4998 44.0536 49.5633 47.9036 45.4998 49.3526V67.4966H57.6378C58.4358 66.1281 59.4648 64.8366 60.8123 63.7131C63.1188 61.7881 65.2888 59.6426 66.6223 56.9511C72.7018 44.6556 70.2903 31.5446 61.6313 23.0326C56.2378 17.7266 49.0943 14.8881 41.5238 15.0036ZM27.9718 75.4731C27.6918 80.6041 31.5348 85.0001 36.6728 85.0001H47.2463C52.0798 85.0001 55.9963 81.0836 55.9963 76.2501V74.5001H27.9333C27.9333 74.8291 27.9928 75.1371 27.9718 75.4731ZM83.6953 19.5501C82.8973 17.7896 80.8288 16.9951 79.0683 17.8001L72.3063 20.8521C70.5423 21.6466 69.7583 23.7186 70.5563 25.4791C71.1408 26.7741 72.4113 27.5406 73.7483 27.5406C74.2278 27.5406 74.7178 27.4426 75.1833 27.2291L81.9453 24.1771C83.7093 23.3826 84.4933 21.3106 83.6953 19.5501Z" fill="#EFEFEF"/>
</svg>
