<svg width="81" height="82" viewBox="0 0 81 82" fill="none" xmlns="http://www.w3.org/2000/svg">
<path d="M0.0235085 30.1418C0.00984181 30.3434 0.0200918 29.9368 0.0235085 30.1418V30.1418ZM76.1298 65.9861L80.9712 68.7741L77.5579 74.6918L72.7404 71.914C70.6733 74.1417 67.981 75.7612 64.9197 76.4616V82H58.0863V76.4616C55.025 75.7612 52.3293 74.1451 50.2656 71.914L45.4481 74.6918L42.0348 68.7741L46.8763 65.9861C46.4355 64.5579 46.1314 63.0717 46.1314 61.5034C46.1314 59.9352 46.4355 58.4455 46.8763 57.0208L42.0348 54.2327L45.4481 48.3151L50.2656 51.0928C52.3327 48.8652 55.025 47.2457 58.0863 46.5452V41.0068H64.9197V46.5452C67.981 47.2457 70.6768 48.8618 72.7404 51.0928L77.5579 48.3151L80.9712 54.2327L76.1298 57.0208C76.5705 58.4489 76.8746 59.9352 76.8746 61.5034C76.8746 63.0717 76.5705 64.5613 76.1298 65.9861ZM66.6246 61.5034C66.6246 58.6778 64.3252 56.3784 61.4996 56.3784C58.674 56.3784 56.3746 58.6778 56.3746 61.5034C56.3746 64.329 58.674 66.6284 61.4996 66.6284C64.3252 66.6284 66.6246 64.329 66.6246 61.5034ZM54.6663 35.0653V20.5034C54.6663 14.8523 50.0674 10.2534 44.4163 10.2534H38.7412C39.0179 8.48017 39.2947 6.6625 39.2913 6.55317C39.2195 2.85292 36.5716 0.146918 31.8498 0.00341797C28.1598 0.266501 25.3786 3.47133 25.6417 7.16475C25.6963 7.79342 25.8979 9.02683 26.1132 10.2534H20.4996C14.8484 10.2534 10.2496 14.8523 10.2496 20.5034V26.1717C8.49343 25.8983 6.70651 25.625 6.60059 25.6284C2.90034 25.7002 -0.0379915 28.7615 0.0337585 32.4618C-0.0960749 36.8078 3.51876 39.5411 7.20876 39.278C7.83059 39.2268 9.03668 39.0286 10.2496 38.8167V44.4235C10.2496 50.0747 14.8484 54.6735 20.4996 54.6735H26.6598C26.0824 51.8684 25.6246 49.2171 25.6246 47.8402C25.6246 44.0648 28.6825 41.0068 32.4579 41.0068C35.6218 41.0068 38.2594 43.1696 39.035 46.0874C42.7113 40.7403 48.1985 36.7394 54.6663 35.0687V35.0653Z" fill="black"/>
</svg>
