<svg width="82" height="76" viewBox="0 0 82 76" fill="none" xmlns="http://www.w3.org/2000/svg">
<path d="M17.5482 36.3191L37.5835 47.7683V71.3638C36.7157 71.1076 35.8683 70.7659 35.0688 70.3081L20.1278 61.7733L11.118 67.2536L16.3968 68.9072C18.1939 69.4744 19.195 71.3912 18.6313 73.1917C18.1734 74.6507 16.8273 75.5834 15.3718 75.5834C15.0335 75.5834 14.6884 75.5322 14.3468 75.4263L4.67076 72.3854C1.45909 71.6098 -0.655823 68.1419 0.18126 64.7082L3.57401 54.0448C4.14801 52.2442 6.07501 51.2568 7.86876 51.8273C9.66593 52.4013 10.6568 54.3249 10.0862 56.1221L8.59651 60.7858L17.0801 55.6267V39.5786C17.0801 38.4613 17.2475 37.368 17.5482 36.3191ZM58.8933 29.1953L44.4203 20.9236V10.5848L48.8995 14.8488C49.5589 15.4808 50.4063 15.7918 51.2536 15.7918C52.1556 15.7918 53.0542 15.4364 53.7273 14.7292C55.029 13.3659 54.9778 11.2032 53.6111 9.90142L45.6195 2.28567C43.1253 -0.201665 39.0595 -0.205082 36.6508 2.20708L28.4268 9.87408C27.0465 11.1622 26.9679 13.3249 28.256 14.7018C29.5441 16.0856 31.7068 16.1608 33.0838 14.8727L37.5869 10.6736V20.9236L23.1139 29.1953C22.434 29.5848 21.819 30.0529 21.2382 30.5552L41.0036 41.8507L60.769 30.5552C60.1882 30.0529 59.5732 29.5814 58.8933 29.1953ZM81.7542 64.4792L78.4229 54.0448C77.8489 52.2442 75.9219 51.2533 74.1282 51.8273C72.331 52.4013 71.3402 54.3249 71.9108 56.1221L73.4038 60.7892L64.9168 55.6233V39.5786C64.9168 38.4613 64.7528 37.368 64.4522 36.3191L44.4168 47.7683V71.3638C45.2847 71.1076 46.132 70.7659 46.9315 70.3081L61.8726 61.7698L70.8755 67.2467L65.6002 68.9038C63.803 69.471 62.8019 71.3877 63.3657 73.1883C63.8235 74.6472 65.1697 75.58 66.6252 75.58C66.9634 75.58 67.3085 75.5287 67.6502 75.4228L77.1109 72.4435C80.5413 71.6098 82.6528 68.1419 81.7542 64.4792Z" fill="black"/>
</svg>
