<svg width="70" height="83" viewBox="0 0 70 83" fill="none" xmlns="http://www.w3.org/2000/svg">
<path d="M57.4857 7.81151L36.0803 0.674096C35.3795 0.440666 34.6218 0.440666 33.921 0.674096L12.5156 7.81151C9.11225 8.94202 6.15174 11.1163 4.05469 14.0254C1.95764 16.9346 0.830699 20.4306 0.833992 24.0168V41.4998C0.833992 67.3401 32.2673 81.6115 33.6135 82.206C34.0502 82.4 34.5228 82.5003 35.0007 82.5003C35.4785 82.5003 35.9511 82.4 36.3878 82.206C37.734 81.6115 69.1673 67.3401 69.1673 41.4998V24.0168C69.1706 20.4306 68.0437 16.9346 65.9466 14.0254C63.8496 11.1163 60.8891 8.94202 57.4857 7.81151ZM51.1205 33.6996L36.5245 48.2956C35.9272 48.8969 35.2164 49.3735 34.4334 49.6979C33.6504 50.0222 32.8108 50.1878 31.9632 50.185H31.8505C30.9857 50.1718 30.1326 49.9833 29.3427 49.6309C28.5529 49.2786 27.8427 48.7697 27.2551 48.135L19.3762 39.935C19.035 39.6184 18.7621 39.2355 18.5742 38.8096C18.3863 38.3838 18.2874 37.924 18.2835 37.4586C18.2797 36.9931 18.371 36.5318 18.5518 36.1029C18.7326 35.674 18.9992 35.2866 19.3351 34.9644C19.6711 34.6423 20.0693 34.3921 20.5054 34.2294C20.9414 34.0666 21.4062 33.9947 21.8711 34.018C22.3359 34.0412 22.7911 34.1593 23.2088 34.3648C23.6264 34.5703 23.9976 34.859 24.2997 35.2132L31.9667 43.2082L46.2757 28.8582C46.9201 28.2358 47.7831 27.8914 48.6789 27.8992C49.5748 27.907 50.4317 28.2663 51.0652 28.8998C51.6987 29.5333 52.058 30.3902 52.0658 31.2861C52.0736 32.1819 51.7292 33.045 51.1068 33.6893L51.1205 33.6996Z" fill="white"/>
</svg>
