<svg width="39" height="36" viewBox="0 0 39 36" fill="none" xmlns="http://www.w3.org/2000/svg">
<g opacity="0.5">
<path d="M4.29192 2.70711L19.1596 17.5748L4.29192 32.4424L2.58481 34.1495H4.99902H20.5738H20.988L21.2809 33.8566L36.8557 18.2819L37.5628 17.5748L36.8557 16.8677L21.2809 1.29289L20.988 1H20.5738L4.99902 1L2.58481 1L4.29192 2.70711Z" stroke="white" stroke-width="2"/>
<path d="M17.7678 4.31438L17.475 4.02148H17.0607H12.0366H9.62241L11.3295 5.72859L23.1827 17.5818L11.3295 29.435L9.62241 31.1421H12.0366H17.0607H17.475L17.7678 30.8492L30.3281 18.2889L31.0353 17.5818L30.3281 16.8747L17.7678 4.31438Z" fill="white" stroke="black" stroke-width="2"/>
</g>
</svg>
