<svg width="82" height="83" viewBox="0 0 82 83" fill="none" xmlns="http://www.w3.org/2000/svg">
<path d="M71.75 14.1667V65.4167H23.9167V72.25H57.0481L70.5883 81.2768C71.8183 82.0968 73.2363 82.5102 74.661 82.5102C75.8466 82.5102 77.0356 82.2233 78.1221 81.6424C80.5137 80.3612 82 77.8841 82 75.1712V24.4167C82 18.7655 77.4012 14.1667 71.75 14.1667ZM47.0543 17.9797C47.3448 18.1983 47.8333 18.6903 47.8333 19.5377V36.9695L35.875 40.3862V21.8405C35.875 20.9727 36.4558 20.2005 37.2895 19.9613L45.346 17.6619C45.5442 17.6038 45.7253 17.5833 45.8961 17.5833C46.4325 17.5833 46.8357 17.8123 47.0543 17.9797ZM54.6667 0.5H10.25C4.59883 0.5 0 5.09883 0 10.75V61.5046C0 64.2174 1.48625 66.6979 3.87792 67.9757C4.96442 68.5566 6.15342 68.8436 7.339 68.8436C8.76375 68.8436 10.1817 68.4302 11.4082 67.6102L24.9485 58.5833H64.9133V10.75C64.9133 5.09883 60.3144 0.5 54.6632 0.5H54.6667ZM54.6667 42.1252L32.4583 48.47L10.25 42.1252V19.5377C10.25 16.7565 11.5244 14.1974 13.7452 12.5232C15.9661 10.8491 18.7746 10.3229 21.4464 11.0917L29.4995 13.3911C30.5928 13.702 31.5905 14.2213 32.4549 14.891C33.3193 14.2179 34.317 13.702 35.4103 13.3911L43.4668 11.0917C46.1353 10.3229 48.9472 10.8491 51.168 12.5232C53.3888 14.1974 54.6632 16.7565 54.6632 19.5377V42.1252H54.6667ZM29.0417 21.8405V40.3862L17.0833 36.9695V19.5377C17.0833 18.6903 17.5719 18.1983 17.8623 17.9797C18.1528 17.761 18.7609 17.433 19.5741 17.6619L27.6272 19.9613C28.4608 20.2005 29.0451 20.9727 29.0451 21.8405H29.0417Z" fill="white"/>
</svg>
