<svg width="82" height="83" viewBox="0 0 82 83" fill="none" xmlns="http://www.w3.org/2000/svg">
<path d="M36.0125 53.4242C38.0489 55.4571 38.0489 58.7576 36.0125 60.7939L17.1935 79.6129C13.1345 83.6719 6.47203 83.5421 2.57703 79.22C-1.07197 75.1678 -0.501382 68.8231 3.35262 64.9691L21.7684 46.5533C23.8014 44.5203 27.1019 44.5169 29.1348 46.5533L36.0091 53.4276L36.0125 53.4242ZM54.5035 38.0936C58.8188 38.1004 63.1955 39.8053 66.4174 43.0307C68.3342 44.9167 70.9035 44.5545 71.7509 43.9702C77.9658 39.6687 82.0624 32.5483 82.0624 24.4167C82.0624 23.0056 81.936 21.6252 81.7002 20.2825C81.2355 17.6585 77.9179 16.7257 76.0319 18.6083L70.4047 24.2356C66.4892 28.1511 61.3403 28.7524 57.8826 25.9234C53.9056 22.6707 53.6869 16.7941 57.23 13.251L63.9438 6.53725C65.8264 4.65125 64.9039 1.32342 62.2799 0.858749C60.9371 0.619582 59.5568 0.496582 58.1457 0.496582C48.0904 0.496582 39.5078 6.70808 35.9749 15.4992C35.2677 17.2553 35.6811 19.2746 37.0204 20.6105L54.5035 38.0902V38.0936ZM61.5863 47.8618C58.9862 45.2618 55.3304 44.4212 52.0059 45.2617L27.3308 20.59V14.1632C27.3308 11.5939 25.9573 9.21591 23.7296 7.93125L12.0925 1.22092C9.98095 0.00116536 7.31253 0.353082 5.58712 2.0785L1.58278 6.08283C-0.146049 7.80825 -0.497965 10.4801 0.721785 12.5916L7.43553 24.2322C8.7202 26.4598 11.0948 27.8299 13.6641 27.8299H20.0806L44.7626 52.5085C43.9255 55.8295 44.7626 59.4853 47.3627 62.0854L64.6408 79.179C68.5597 83.0979 75.3281 83.4703 79.2436 79.548C83.1659 75.6188 82.6705 69.7524 79.2402 65.3278L61.5863 47.8618Z" fill="white"/>
</svg>
