<svg width="90" height="90" viewBox="0 0 90 90" fill="none" xmlns="http://www.w3.org/2000/svg">
<g clip-path="url(#clip0_700_577)">
<path d="M24.375 0.000721043C10.935 0.000721043 0 10.9357 0 24.3757C0 37.8157 10.935 48.7507 24.375 48.7507C37.815 48.7507 48.75 37.8157 48.75 24.3757C48.75 10.9357 37.815 0.000721043 24.375 0.000721043ZM75 45.0007H60C51.7275 45.0007 45 51.7282 45 60.0007V75.0007C45 83.2732 51.7275 90.0007 60 90.0007H75C83.2725 90.0007 90 83.2732 90 75.0007V60.0007C90 51.7282 83.2725 45.0007 75 45.0007ZM31.6237 69.777C34.4775 72.6345 34.4775 77.3632 31.575 80.2695L23.3288 88.8495C22.5938 89.6145 21.6112 90.0007 20.625 90.0007C19.6912 90.0007 18.7537 89.652 18.0263 88.9545C16.5375 87.5182 16.4888 85.1445 17.925 83.652L22.635 78.7507H15.0037C6.73125 78.7507 0.00375 72.0232 0.00375 63.7507V56.2507C0.00375 54.177 1.68 52.5007 3.75375 52.5007C5.8275 52.5007 7.50375 54.177 7.50375 56.2507V63.7507C7.50375 67.887 10.8675 71.2507 15.0037 71.2507H22.6125L17.925 66.3495C16.4888 64.857 16.5375 62.4832 18.0263 61.047C19.5225 59.607 21.8963 59.6557 23.3288 61.1482L31.6237 69.777ZM90 26.2507V33.7507C90 35.8245 88.3238 37.5007 86.25 37.5007C84.1762 37.5007 82.5 35.8245 82.5 33.7507V26.2507C82.5 22.1145 79.1363 18.7507 75 18.7507H67.3913L72.0788 23.652C73.515 25.1445 73.4662 27.5182 71.9775 28.9545C71.25 29.6557 70.3125 30.0007 69.3787 30.0007C68.3925 30.0007 67.4137 29.6145 66.675 28.8495L58.38 20.2207C55.5262 17.3632 55.5263 12.6345 58.4288 9.72822L66.675 1.14822C68.1075 -0.340529 70.4813 -0.389279 71.9775 1.04697C73.4662 2.48322 73.515 4.85697 72.0788 6.34947L67.3688 11.2507H75C83.2725 11.2507 90 17.9782 90 26.2507Z" fill="#F1F1F1"/>
</g>
<defs>
<clipPath id="clip0_700_577">
<rect width="90" height="90" fill="white"/>
</clipPath>
</defs>
</svg>
