<svg width="34" height="47" viewBox="0 0 34 47" fill="none" xmlns="http://www.w3.org/2000/svg">
<path d="M0.500025 42.2433C0.497605 42.9701 0.668555 43.6844 0.994505 44.3084C1.32046 44.933 1.78909 45.4439 2.35003 45.7862C2.90142 46.1639 3.5322 46.3633 4.17505 46.3633C4.81785 46.3633 5.44865 46.1639 6.00005 45.7862L31.4 26.9292C31.8955 26.5676 32.3034 26.0692 32.5859 25.48C32.8685 24.8907 33.0166 24.2296 33.0166 23.5578C33.0166 22.8859 32.8685 22.2248 32.5859 21.6355C32.3034 21.0463 31.8955 20.5479 31.4 20.1863L6.00005 1.21489C5.44865 0.83718 4.81785 0.637695 4.17505 0.637695C3.5322 0.637695 2.90142 0.83718 2.35003 1.21489C1.78909 1.55758 1.32046 2.06849 0.994505 2.69267C0.668555 3.31689 0.497605 4.03084 0.500025 4.75775V42.2433Z" fill="white"/>
</svg>
